<svg width="172" height="152" viewBox="0 0 172 152" fill="none" xmlns="http://www.w3.org/2000/svg">
<circle cx="93.4784" cy="75.3129" r="71.103" fill="#F0F0F0"/>
<path d="M104.525 58.5381L171.216 77.3588L164.261 151.414L84.4771 131.366L104.525 58.5381Z" fill="#D2D2D2"/>
<path d="M170.807 76.9497L100.843 58.9473C97.4333 63.857 88.6503 76.5406 80.7947 87.9967C72.939 99.4528 59.2463 113.5 53.3818 119.092L135.211 143.231C136.711 142.413 143.067 136.44 156.487 119.092C169.907 101.744 171.625 83.7688 170.807 76.9497Z" fill="#F3F3F3" stroke="#CCCCCC" stroke-width="0.818293"/>
<circle cx="106.98" cy="78.1775" r="3.27317" fill="#C4C4C4"/>
<circle cx="97.1609" cy="95.3611" r="3.27317" fill="#C4C4C4"/>
<circle cx="87.341" cy="110.909" r="3.27317" fill="#C4C4C4"/>
<circle cx="41.2163" cy="41.0176" r="29.8586" transform="rotate(25.8347 41.2163 41.0176)" fill="#F0F0F0" stroke="#D2D2D2" stroke-width="0.818293"/>
<rect width="16.3659" height="2.45488" transform="matrix(1 0 0 -1 31.8062 49.6094)" fill="#C4C4C4"/>
<circle cx="24.0323" cy="36.108" r="4.50061" fill="#C4C4C4"/>
<circle cx="55.9454" cy="36.108" r="4.50061" fill="#C4C4C4"/>
</svg>
