<svg width="248" height="58" viewBox="0 0 248 58" fill="none" xmlns="http://www.w3.org/2000/svg">
<path d="M137.148 32.6401C137.112 33.3634 136.868 34.0597 136.447 34.643C136.026 35.2262 135.446 35.6708 134.779 35.9217C134.113 36.1725 133.389 36.2187 132.697 36.0544C132.005 35.8903 131.376 35.5227 130.887 34.9975C130.397 34.4722 130.07 33.8123 129.945 33.0995C129.82 32.3865 129.903 31.652 130.184 30.9867C130.464 30.3213 130.93 29.7543 131.524 29.3561C132.117 28.9579 132.812 28.7459 133.522 28.7461C134.504 28.7891 135.431 29.2193 136.108 29.9458C136.784 30.6723 137.157 31.6384 137.148 32.6401Z" fill="#FEC000"/>
<path d="M73.5497 14.9199H81.5722L91.6989 42.1776H83.8644L81.9855 36.3366H73.2179L71.3077 42.1776H63.4795L73.5497 14.9199ZM80.0441 30.2979L77.6519 22.5164H77.5015L75.0903 30.2979H80.0441Z" fill="white"/>
<path d="M95.1358 30.105H92.6309V23.8747H95.1358V21.9278C95.1358 17.2168 97.81 14.5293 101.818 14.5293C102.73 14.5396 103.639 14.6444 104.53 14.8421L105.638 15.1166V21.149L105.106 20.9576C104.66 20.8152 104.195 20.7483 103.728 20.7595C102.319 20.7595 101.63 21.5383 101.63 23.0959V23.8747H105.638V30.105H101.63V42.1764H95.1358V30.105Z" fill="white"/>
<path d="M109.079 23.096H115.573V25.4324C115.937 24.94 116.374 24.5091 116.87 24.1557C117.992 23.328 119.342 22.8812 120.728 22.8789H121.492V29.9009L120.959 29.7094C120.515 29.5706 120.052 29.5039 119.588 29.5114C117.083 29.5114 115.573 31.0308 115.573 33.9798V42.1763H109.079V23.096Z" fill="white"/>
<path d="M133.525 22.7065C127.601 22.7065 123.211 27.175 123.211 32.6392C123.211 38.1036 127.601 42.5911 133.525 42.5911C139.45 42.5911 143.84 38.1227 143.84 32.6647C143.84 27.2069 139.444 22.7065 133.525 22.7065ZM133.525 36.5267C132.762 36.5676 132.005 36.3744 131.351 35.9717C130.696 35.5692 130.176 34.9759 129.856 34.2685C129.536 33.5613 129.431 32.7723 129.556 32.0039C129.68 31.2354 130.028 30.5226 130.554 29.9576C131.08 29.3927 131.76 29.0015 132.507 28.8346C133.253 28.6678 134.032 28.7329 134.741 29.0218C135.451 29.3105 136.059 29.8095 136.488 30.4545C136.917 31.0993 137.146 31.8604 137.145 32.6392C137.151 33.6383 136.778 34.6009 136.103 35.3256C135.428 36.0502 134.505 36.4807 133.525 36.5267Z" fill="white"/>
<path d="M150.335 35.5704C151.007 35.6078 151.654 35.8451 152.195 36.2533C152.736 36.6614 153.148 37.2223 153.38 37.8666C153.612 38.5108 153.654 39.2102 153.5 39.8784C153.346 40.5466 153.004 41.1541 152.514 41.6258C152.025 42.0976 151.412 42.413 150.749 42.5329C150.086 42.6528 149.403 42.5722 148.785 42.3008C148.166 42.0292 147.639 41.5791 147.269 41.0058C146.899 40.4324 146.702 39.7612 146.702 39.0748C146.7 38.597 146.793 38.1237 146.977 37.6841C147.162 37.2446 147.432 36.8484 147.773 36.5199C148.113 36.1912 148.517 35.9375 148.957 35.7741C149.398 35.6109 149.867 35.5414 150.335 35.5704Z" fill="white"/>
<path d="M158.547 14.9199H178.793V21.9419H165.805V26.6337H175.738V33.2214H165.805V42.1583H158.547V14.9199Z" fill="white"/>
<path d="M180.704 23.0967H187.198V33.221C187.198 35.2062 188.345 36.3361 189.873 36.3361C191.589 36.3361 192.929 35.0084 192.929 32.8317V23.0967H199.423V42.177H192.929V39.4513H192.735C192.394 40.0297 191.971 40.5545 191.482 41.0089C190.367 42.0491 188.904 42.6154 187.393 42.592C183.573 42.592 180.704 39.7066 180.704 34.6062V23.0967Z" fill="white"/>
<path d="M204.006 23.0968H210.5V25.8224H210.687C211.005 25.2367 211.419 24.71 211.91 24.2649C213.05 23.2325 214.53 22.6764 216.054 22.7073C219.874 22.7073 222.743 25.631 222.743 30.6868V42.1771H216.231V32.0528C216.231 30.0675 215.084 28.9376 213.556 28.9376C211.833 28.9376 210.5 30.2591 210.5 32.4423V42.1771H204.006V23.0968Z" fill="white"/>
<path d="M240.101 39.4518H239.914C239.569 40.0286 239.148 40.553 238.661 41.0093C237.471 42.0563 235.944 42.6199 234.37 42.5924C229.987 42.5924 226.161 38.6985 226.161 32.6598C226.161 26.6209 229.981 22.7333 234.37 22.7333C235.935 22.7021 237.457 23.2561 238.649 24.2909C239.138 24.7461 239.559 25.2706 239.901 25.8485H240.089V14.9199H246.583V42.1776H240.101V39.4518ZM240.101 32.6343C240.065 31.911 239.821 31.2146 239.4 30.6313C238.979 30.0481 238.399 29.6035 237.732 29.3526C237.066 29.1018 236.342 29.0556 235.65 29.2197C234.957 29.384 234.329 29.7516 233.839 30.2768C233.35 30.8021 233.023 31.4621 232.898 32.1748C232.774 32.8878 232.856 33.6223 233.137 34.2877C233.418 34.953 233.883 35.52 234.477 35.9182C235.07 36.3164 235.766 36.5284 236.476 36.5282C237.457 36.4836 238.383 36.0529 239.059 35.3268C239.735 34.6006 240.108 33.6354 240.101 32.6343Z" fill="white"/>
<path d="M26.9272 54.7565L18.3036 35.0824L13.0618 29.8607L6.55493 29.8225L1.39453 23.4389V15.2169L9.65493 3.9883L22.4996 2.33496L27.1904 6.24806L28.6495 5.20755L37.5236 7.02048L40.4357 13.0082L50.7941 24.2305L40.6236 34.8335L34.1481 54.7181L26.9272 54.7565ZM6.88686 29.0373L13.3436 29.0947L18.9048 34.6292V34.6995L27.4282 53.9841H33.597L39.9599 34.4185L40.0161 34.3548L49.742 24.2177L39.8032 13.4551L37.0101 7.70991L28.8061 6.03104L27.1402 7.21837L22.2741 3.1393L10.0683 4.71603L2.15231 15.4786V23.1388L6.88686 29.0373Z" fill="#FEC000"/>
<path d="M27.2607 8.27062L28.9328 7.03223L36.5232 8.57703L39.1097 14.1498V20.0354H36.0723V28.7044L26.9602 8.42383L27.2607 8.27062Z" fill="#4E9031"/>
<path d="M27.1099 8.27143L36.0718 28.7052H39.1091V34.1184L34.8567 47.5876L22.5508 20.0362H19.5134V14.1507L13.7455 28.2454H7.52046L3.11157 22.9791V15.7019L10.4013 5.64141L22.0999 3.93701L27.1099 8.27143Z" fill="#21330F"/>
<path d="M39.5648 20.0371H36.0703V28.7059H39.5648V20.0371Z" fill="#77C61F"/>
<path d="M39.1064 14.1504V34.118L48.8261 24.2171L39.1064 14.1504Z" fill="#96D150"/>
<path d="M22.556 20.0371H19.0615V28.7059H22.556V20.0371Z" fill="#77C71B"/>
<path d="M19.5107 34.119L27.8651 53.3144H33.0317L34.8543 47.5883L22.5481 20.0371V28.7059H19.5107V34.119Z" fill="#4E9031"/>
<path d="M19.5137 14.1504V34.118L9.79419 24.2171L19.5137 14.1504Z" fill="#99CC66"/>
</svg>
