<svg width="351" height="81" viewBox="0 0 351 81" fill="none" xmlns="http://www.w3.org/2000/svg">
<path d="M194.109 46.1963C194.057 47.22 193.711 48.2056 193.116 49.031C192.52 49.8565 191.699 50.4858 190.756 50.8408C189.813 51.1959 188.788 51.2613 187.809 51.0287C186.829 50.7964 185.938 50.2762 185.246 49.5328C184.554 48.7894 184.091 47.8553 183.914 46.8465C183.737 45.8374 183.855 44.7978 184.252 43.8562C184.649 42.9145 185.308 42.112 186.148 41.5484C186.988 40.9848 187.971 40.6848 188.977 40.6851C190.366 40.7459 191.678 41.3547 192.636 42.383C193.594 43.4112 194.122 44.7786 194.109 46.1963Z" fill="#FEC000"/>
<path d="M104.097 21.1162H115.452L129.784 59.6946H118.696L116.037 51.4277H103.628L100.924 59.6946H89.8447L104.097 21.1162ZM113.289 42.881L109.903 31.8677H109.69L106.278 42.881H113.289Z" fill="#007C5B"/>
<path d="M134.649 42.6087H131.104V33.7907H134.649V31.0353C134.649 24.3676 138.434 20.564 144.106 20.564C145.397 20.5786 146.683 20.7269 147.944 21.0067L149.513 21.3952V29.933L148.76 29.6621C148.129 29.4606 147.47 29.3659 146.81 29.3818C144.816 29.3818 143.841 30.484 143.841 32.6885V33.7907H149.513V42.6087H143.841V59.6935H134.649V42.6087Z" fill="#007C5B"/>
<path d="M154.382 32.6882H163.573V35.9949C164.088 35.2979 164.707 34.6881 165.408 34.1879C166.997 33.0164 168.907 32.3841 170.868 32.3809H171.95V42.3192L171.196 42.0483C170.567 41.8518 169.912 41.7574 169.255 41.768C165.71 41.768 163.573 43.9184 163.573 48.0923V59.693H154.382V32.6882Z" fill="#007C5B"/>
<path d="M188.981 32.1367C180.596 32.1367 174.383 38.461 174.383 46.1946C174.383 53.9285 180.596 60.2798 188.981 60.2798C197.366 60.2798 203.58 53.9555 203.58 46.2308C203.58 38.5062 197.357 32.1367 188.981 32.1367ZM188.981 51.6968C187.901 51.7546 186.829 51.4811 185.903 50.9112C184.977 50.3415 184.24 49.5019 183.788 48.5006C183.335 47.4997 183.187 46.383 183.363 45.2954C183.539 44.2078 184.031 43.199 184.776 42.3993C185.52 41.5998 186.483 41.0461 187.54 40.81C188.596 40.5739 189.698 40.666 190.702 41.0748C191.707 41.4834 192.568 42.1897 193.174 43.1026C193.781 44.0152 194.105 45.0924 194.104 46.1946C194.113 47.6087 193.584 48.9711 192.629 49.9968C191.674 51.0223 190.367 51.6316 188.981 51.6968Z" fill="#007C5B"/>
<path d="M212.771 50.344C213.722 50.397 214.638 50.7329 215.404 51.3106C216.17 51.8881 216.753 52.6821 217.082 53.5939C217.41 54.5057 217.469 55.4956 217.251 56.4413C217.033 57.387 216.548 58.2468 215.856 58.9145C215.164 59.5821 214.295 60.0286 213.357 60.1983C212.419 60.368 211.452 60.2538 210.577 59.8697C209.702 59.4854 208.956 58.8483 208.432 58.037C207.909 57.2254 207.63 56.2754 207.63 55.304C207.626 54.6277 207.759 53.9578 208.02 53.3356C208.28 52.7136 208.664 52.1528 209.145 51.6879C209.627 51.2228 210.198 50.8637 210.822 50.6324C211.445 50.4013 212.109 50.3031 212.771 50.344Z" fill="#007C5B"/>
<path d="M224.395 21.1162H253.05V31.0546H234.667V37.695H248.725V47.0188H234.667V59.6674H224.395V21.1162Z" fill="#007C5B"/>
<path d="M255.755 32.6895H264.947V47.0186C264.947 49.8284 266.57 51.4276 268.732 51.4276C271.161 51.4276 273.057 49.5483 273.057 46.4676V32.6895H282.249V59.6942H273.057V55.8365H272.782C272.3 56.6552 271.701 57.3978 271.009 58.041C269.431 59.5132 267.361 60.3147 265.222 60.2816C259.815 60.2816 255.755 56.1979 255.755 48.9791V32.6895Z" fill="#007C5B"/>
<path d="M288.733 32.6897H297.925V36.5474H298.19C298.64 35.7184 299.226 34.973 299.92 34.3429C301.534 32.8819 303.629 32.0948 305.786 32.1384C311.192 32.1384 315.253 36.2765 315.253 43.4321V59.6945H306.036V45.3653C306.036 42.5556 304.412 40.9564 302.251 40.9564C299.811 40.9564 297.925 42.8268 297.925 45.9166V59.6945H288.733V32.6897Z" fill="#007C5B"/>
<path d="M339.82 55.8367H339.555C339.068 56.6531 338.472 57.3952 337.782 58.0412C336.098 59.5229 333.936 60.3206 331.709 60.2817C325.505 60.2817 320.091 54.7705 320.091 46.2238C320.091 37.6768 325.497 32.1747 331.709 32.1747C333.924 32.1305 336.078 32.9146 337.765 34.3792C338.456 35.0234 339.052 35.7658 339.537 36.5837H339.802V21.1162H348.994V59.6946H339.82V55.8367ZM339.82 46.1877C339.77 45.164 339.424 44.1784 338.828 43.3529C338.232 42.5275 337.411 41.8982 336.467 41.5431C335.525 41.1881 334.5 41.1227 333.52 41.355C332.54 41.5876 331.651 42.1078 330.957 42.8512C330.265 43.5946 329.803 44.5287 329.626 45.5375C329.449 46.5465 329.565 47.5862 329.964 48.5278C330.361 49.4694 331.02 50.2719 331.861 50.8356C332.699 51.3992 333.684 51.6992 334.689 51.6989C336.078 51.6358 337.388 51.0262 338.345 49.9985C339.302 48.9707 339.83 47.6046 339.82 46.1877Z" fill="#007C5B"/>
<path d="M38.1116 77.498L25.9064 49.6529L18.4876 42.2624L9.27824 42.2084L1.97461 33.1736V21.5368L13.6657 5.6447L31.8451 3.30469L38.484 8.84299L40.5491 7.37033L53.1089 9.93621L57.2305 18.4108L71.8909 34.294L57.4964 49.3006L48.3315 77.4437L38.1116 77.498ZM9.74802 41.0971L18.8864 41.1784L26.7574 49.0115V49.111L38.8206 76.4049H47.5515L56.557 48.7133L56.6365 48.6231L70.4018 34.2758L56.3353 19.0432L52.3821 10.912L40.7708 8.53582L38.4131 10.2163L31.5259 4.44309L14.2507 6.67467L3.0471 21.9072V32.7488L9.74802 41.0971Z" fill="#FEC000"/>
<path d="M38.5834 11.7054L40.95 9.95264L51.6929 12.139L55.3537 20.0264V28.3564H51.0548V40.6257L38.1582 11.9222L38.5834 11.7054Z" fill="#4E9031"/>
<path d="M38.3696 11.7064L51.0536 40.6267H55.3525V48.2881L49.334 67.3515L31.917 28.3574H27.6182V20.0274L19.4547 39.976H10.6443L4.4043 32.5224V22.2228L14.7216 7.98406L31.2789 5.57178L38.3696 11.7064Z" fill="#21330F"/>
<path d="M55.9966 28.3589H51.0508V40.628H55.9966V28.3589Z" fill="#77C61F"/>
<path d="M55.3477 20.0273V48.288L69.1041 34.275L55.3477 20.0273Z" fill="#96D150"/>
<path d="M31.9243 28.3589H26.9785V40.628H31.9243V28.3589Z" fill="#77C71B"/>
<path d="M27.6143 48.2894L39.4384 75.457H46.7508L49.3303 67.3527L31.9131 28.3589V40.628H27.6143V48.2894Z" fill="#4E9031"/>
<path d="M27.6176 20.0273V48.288L13.8613 34.275L27.6176 20.0273Z" fill="#99CC66"/>
</svg>
