<svg width="36" height="39" viewBox="0 0 36 39" fill="none" xmlns="http://www.w3.org/2000/svg">
<path d="M18.4887 38.4803L12.244 24.2335L8.44825 20.4522L3.73636 20.4246L-0.000488281 15.802V9.84811L5.98119 1.71702L15.2825 0.519775L18.6793 3.35341L19.7359 2.59993L26.162 3.91275L28.2708 8.24871L35.7717 16.3752L28.4068 24.0533L23.7177 38.4525L18.4887 38.4803ZM3.97672 19.856L8.65232 19.8976L12.6794 23.9053V23.9562L18.8515 37.921H23.3186L27.9262 23.7527L27.9669 23.7066L35.0098 16.3659L27.8128 8.57229L25.7902 4.41199L19.8493 3.19625L18.643 4.05604L15.1192 1.10223L6.28051 2.244L0.548246 10.0376V15.5847L3.97672 19.856Z" fill="#FEC000"/>
<path d="M18.7298 4.81791L19.9406 3.92114L25.4371 5.0398L27.3101 9.07529V13.3373H25.1107V19.6148L18.5122 4.92886L18.7298 4.81791Z" fill="#4E9031"/>
<path d="M18.6213 4.81865L25.111 19.6155H27.3104V23.5354L24.2311 33.2891L15.3199 13.338H13.1204V9.07605L8.94362 19.2826H4.43581L1.24316 15.469V10.1993L6.52193 2.91416L14.9934 1.67993L18.6213 4.81865Z" fill="#21330F"/>
<path d="M27.6399 13.3386H25.1094V19.616H27.6399V13.3386Z" fill="#77C61F"/>
<path d="M27.3081 9.07593V23.5353L34.3465 16.3657L27.3081 9.07593Z" fill="#96D150"/>
<path d="M15.323 13.3386H12.7925V19.616H15.323V13.3386Z" fill="#77C71B"/>
<path d="M13.1177 23.5359L19.1674 37.4361H22.9088L24.2285 33.2895L15.3172 13.3386V19.616H13.1177V23.5359Z" fill="#4E9031"/>
<path d="M13.1203 9.07593V23.5353L6.08203 16.3657L13.1203 9.07593Z" fill="#99CC66"/>
</svg>
