<svg width="77" height="76" viewBox="0 0 77 76" fill="none" xmlns="http://www.w3.org/2000/svg">
<g clip-path="url(#clip0_4834_127555)">
<path d="M76.0246 34.5542H28.1689V75.7613H76.0246V34.5542Z" fill="#007C5B"/>
<path d="M76.0246 72.3408H28.1689V75.9229H76.0246V72.3408Z" fill="#1F2739"/>
<path d="M64.8449 34.5542H55.2178V72.3408H64.8449V34.5542Z" fill="url(#paint0_linear_4834_127555)"/>
<path d="M76.0232 34.5542H61.4551V72.3408H76.0232V34.5542Z" fill="url(#paint1_linear_4834_127555)"/>
<path d="M52.2108 0.807617C42.4817 0.807617 34.5864 9.15676 34.5864 19.4451V34.5543H40.4442V19.4451C40.4442 12.5772 45.7162 7.00215 52.2108 7.00215C58.7053 7.00215 63.9773 12.5772 63.9773 19.4451V34.5543H69.8351V19.4451C69.8351 9.15676 61.9398 0.807617 52.2108 0.807617Z" fill="#007C5B"/>
<path d="M57.3043 51.1178C57.3043 48.4515 55.2668 46.2969 52.7454 46.2969C50.224 46.2969 48.1865 48.4515 48.1865 51.1178C48.1865 52.7069 48.9251 54.1343 50.0712 54.9962L49.409 62.7528H56.311L55.6234 54.8615C56.6676 53.9727 57.3043 52.6261 57.3043 51.1178Z" fill="white"/>
<path d="M36.8525 67.3584H11.5367C6.51932 67.3584 2.44434 63.0491 2.44434 57.7434C2.44434 52.4377 6.51932 48.1284 11.5367 48.1284H36.878C41.8953 48.1284 45.9703 52.4377 45.9703 57.7434C45.9448 63.0491 41.8698 67.3584 36.8525 67.3584Z" fill="#E6E6E6"/>
<path d="M34.4087 65.5268H9.09281C4.07548 65.5268 0.000488281 61.2176 0.000488281 55.9119C0.000488281 50.6061 4.07548 46.2969 9.09281 46.2969H34.4341C39.4515 46.2969 43.5265 50.6061 43.5265 55.9119C43.501 61.2176 39.426 65.5268 34.4087 65.5268Z" fill="white"/>
<path d="M10.3397 53.5955L8.68419 55.8848V55.9117L11.3075 55.5347V56.7736L8.68419 56.4504V56.4773L10.3397 58.6858L9.2445 59.3322L8.20029 56.7736H8.17482L7.05419 59.3591L6.06092 58.7127L7.71638 56.4773V56.4504L5.14404 56.8005V55.5616L7.69091 55.9117V55.8848L6.06092 53.6494L7.10513 53.003L8.17482 55.5347H8.20029L9.2445 52.9761L10.3397 53.5955Z" fill="#1F2739"/>
<path d="M19.9671 53.5955L18.3116 55.8848V55.9117L20.9349 55.5347V56.7736L18.3116 56.4504V56.4773L19.9671 58.6858L18.8719 59.3322L17.8277 56.7736H17.8023L16.6816 59.3591L15.6884 58.7127L17.3438 56.4773V56.4504L14.7715 56.8005V55.5616L17.3184 55.9117V55.8848L15.6884 53.6494L16.7326 53.003L17.8023 55.5347H17.8277L18.8719 52.9761L19.9671 53.5955Z" fill="#1F2739"/>
<path d="M28.805 53.5955L27.1495 55.8848V55.9117L29.7728 55.5347V56.7736L27.1495 56.4504V56.4773L28.805 58.6858L27.7098 59.3322L26.6656 56.7736H26.6402L25.5195 59.3591L24.5262 58.7127L26.1817 56.4773V56.4504L23.6094 56.8005V55.5616L26.1562 55.9117V55.8848L24.5262 53.6494L25.5705 53.003L26.6402 55.5347H26.6656L27.7098 52.9761L28.805 53.5955Z" fill="#1F2739"/>
<path d="M37.514 53.5955L35.8585 55.8848V55.9117L38.4818 55.5347V56.7736L35.8585 56.4504V56.4773L37.514 58.6858L36.4188 59.3322L35.3746 56.7736H35.3491L34.2285 59.3591L33.2352 58.7127L34.8907 56.4773V56.4504L32.3184 56.8005V55.5616L34.8652 55.9117V55.8848L33.2352 53.6494L34.2794 53.003L35.3491 55.5347H35.3746L36.4188 52.9761L37.514 53.5955Z" fill="#1F2739"/>
</g>
<defs>
<linearGradient id="paint0_linear_4834_127555" x1="58.2975" y1="47.1497" x2="70.8834" y2="47.8479" gradientUnits="userSpaceOnUse">
<stop stop-color="#008D6C"/>
<stop offset="1" stop-color="#11FFC7"/>
</linearGradient>
<linearGradient id="paint1_linear_4834_127555" x1="66.1154" y1="47.1497" x2="85.0856" y2="48.7421" gradientUnits="userSpaceOnUse">
<stop stop-color="#008D6C"/>
<stop offset="1" stop-color="#11FFC7"/>
</linearGradient>
<clipPath id="clip0_4834_127555">
<rect width="76.024" height="75.1154" fill="white" transform="translate(0 0.807617)"/>
</clipPath>
</defs>
</svg>
