<svg width="176" height="176" viewBox="0 0 176 176" fill="none" xmlns="http://www.w3.org/2000/svg">
<path d="M0 0H5.33333V5.33333H0V0ZM5.33333 0H10.6667V5.33333H5.33333V0ZM10.6667 0H16V5.33333H10.6667V0ZM16 0H21.3333V5.33333H16V0ZM21.3333 0H26.6667V5.33333H21.3333V0ZM26.6667 0H32V5.33333H26.6667V0ZM32 0H37.3333V5.33333H32V0ZM48 0H53.3333V5.33333H48V0ZM64 0H69.3333V5.33333H64V0ZM69.3333 0H74.6667V5.33333H69.3333V0ZM74.6667 0H80V5.33333H74.6667V0ZM85.3333 0H90.6667V5.33333H85.3333V0ZM96 0H101.333V5.33333H96V0ZM101.333 0H106.667V5.33333H101.333V0ZM106.667 0H112V5.33333H106.667V0ZM112 0H117.333V5.33333H112V0ZM117.333 0H122.667V5.33333H117.333V0ZM122.667 0H128V5.33333H122.667V0ZM138.667 0H144V5.33333H138.667V0ZM144 0H149.333V5.33333H144V0ZM149.333 0H154.667V5.33333H149.333V0ZM154.667 0H160V5.33333H154.667V0ZM160 0H165.333V5.33333H160V0ZM165.333 0H170.667V5.33333H165.333V0ZM170.667 0H176V5.33333H170.667V0ZM0 5.33333H5.33333V10.6667H0V5.33333ZM32 5.33333H37.3333V10.6667H32V5.33333ZM42.6667 5.33333H48V10.6667H42.6667V5.33333ZM69.3333 5.33333H74.6667V10.6667H69.3333V5.33333ZM74.6667 5.33333H80V10.6667H74.6667V5.33333ZM80 5.33333H85.3333V10.6667H80V5.33333ZM85.3333 5.33333H90.6667V10.6667H85.3333V5.33333ZM90.6667 5.33333H96V10.6667H90.6667V5.33333ZM122.667 5.33333H128V10.6667H122.667V5.33333ZM138.667 5.33333H144V10.6667H138.667V5.33333ZM170.667 5.33333H176V10.6667H170.667V5.33333ZM0 10.6667H5.33333V16H0V10.6667ZM10.6667 10.6667H16V16H10.6667V10.6667ZM16 10.6667H21.3333V16H16V10.6667ZM21.3333 10.6667H26.6667V16H21.3333V10.6667ZM32 10.6667H37.3333V16H32V10.6667ZM42.6667 10.6667H48V16H42.6667V10.6667ZM48 10.6667H53.3333V16H48V10.6667ZM53.3333 10.6667H58.6667V16H53.3333V10.6667ZM58.6667 10.6667H64V16H58.6667V10.6667ZM64 10.6667H69.3333V16H64V10.6667ZM69.3333 10.6667H74.6667V16H69.3333V10.6667ZM74.6667 10.6667H80V16H74.6667V10.6667ZM96 10.6667H101.333V16H96V10.6667ZM128 10.6667H133.333V16H128V10.6667ZM138.667 10.6667H144V16H138.667V10.6667ZM149.333 10.6667H154.667V16H149.333V10.6667ZM154.667 10.6667H160V16H154.667V10.6667ZM160 10.6667H165.333V16H160V10.6667ZM170.667 10.6667H176V16H170.667V10.6667ZM0 16H5.33333V21.3333H0V16ZM10.6667 16H16V21.3333H10.6667V16ZM16 16H21.3333V21.3333H16V16ZM21.3333 16H26.6667V21.3333H21.3333V16ZM32 16H37.3333V21.3333H32V16ZM53.3333 16H58.6667V21.3333H53.3333V16ZM64 16H69.3333V21.3333H64V16ZM69.3333 16H74.6667V21.3333H69.3333V16ZM74.6667 16H80V21.3333H74.6667V16ZM80 16H85.3333V21.3333H80V16ZM85.3333 16H90.6667V21.3333H85.3333V16ZM96 16H101.333V21.3333H96V16ZM112 16H117.333V21.3333H112V16ZM128 16H133.333V21.3333H128V16ZM138.667 16H144V21.3333H138.667V16ZM149.333 16H154.667V21.3333H149.333V16ZM154.667 16H160V21.3333H154.667V16ZM160 16H165.333V21.3333H160V16ZM170.667 16H176V21.3333H170.667V16ZM0 21.3333H5.33333V26.6667H0V21.3333ZM10.6667 21.3333H16V26.6667H10.6667V21.3333ZM16 21.3333H21.3333V26.6667H16V21.3333ZM21.3333 21.3333H26.6667V26.6667H21.3333V21.3333ZM32 21.3333H37.3333V26.6667H32V21.3333ZM48 21.3333H53.3333V26.6667H48V21.3333ZM53.3333 21.3333H58.6667V26.6667H53.3333V21.3333ZM74.6667 21.3333H80V26.6667H74.6667V21.3333ZM80 21.3333H85.3333V26.6667H80V21.3333ZM85.3333 21.3333H90.6667V26.6667H85.3333V21.3333ZM96 21.3333H101.333V26.6667H96V21.3333ZM117.333 21.3333H122.667V26.6667H117.333V21.3333ZM122.667 21.3333H128V26.6667H122.667V21.3333ZM128 21.3333H133.333V26.6667H128V21.3333ZM138.667 21.3333H144V26.6667H138.667V21.3333ZM149.333 21.3333H154.667V26.6667H149.333V21.3333ZM154.667 21.3333H160V26.6667H154.667V21.3333ZM160 21.3333H165.333V26.6667H160V21.3333ZM170.667 21.3333H176V26.6667H170.667V21.3333ZM0 26.6667H5.33333V32H0V26.6667ZM32 26.6667H37.3333V32H32V26.6667ZM48 26.6667H53.3333V32H48V26.6667ZM53.3333 26.6667H58.6667V32H53.3333V26.6667ZM58.6667 26.6667H64V32H58.6667V26.6667ZM64 26.6667H69.3333V32H64V26.6667ZM74.6667 26.6667H80V32H74.6667V26.6667ZM85.3333 26.6667H90.6667V32H85.3333V26.6667ZM90.6667 26.6667H96V32H90.6667V26.6667ZM96 26.6667H101.333V32H96V26.6667ZM112 26.6667H117.333V32H112V26.6667ZM122.667 26.6667H128V32H122.667V26.6667ZM138.667 26.6667H144V32H138.667V26.6667ZM170.667 26.6667H176V32H170.667V26.6667ZM0 32H5.33333V37.3333H0V32ZM5.33333 32H10.6667V37.3333H5.33333V32ZM10.6667 32H16V37.3333H10.6667V32ZM16 32H21.3333V37.3333H16V32ZM21.3333 32H26.6667V37.3333H21.3333V32ZM26.6667 32H32V37.3333H26.6667V32ZM32 32H37.3333V37.3333H32V32ZM42.6667 32H48V37.3333H42.6667V32ZM53.3333 32H58.6667V37.3333H53.3333V32ZM64 32H69.3333V37.3333H64V32ZM74.6667 32H80V37.3333H74.6667V32ZM85.3333 32H90.6667V37.3333H85.3333V32ZM96 32H101.333V37.3333H96V32ZM106.667 32H112V37.3333H106.667V32ZM117.333 32H122.667V37.3333H117.333V32ZM128 32H133.333V37.3333H128V32ZM138.667 32H144V37.3333H138.667V32ZM144 32H149.333V37.3333H144V32ZM149.333 32H154.667V37.3333H149.333V32ZM154.667 32H160V37.3333H154.667V32ZM160 32H165.333V37.3333H160V32ZM165.333 32H170.667V37.3333H165.333V32ZM170.667 32H176V37.3333H170.667V32ZM53.3333 37.3333H58.6667V42.6667H53.3333V37.3333ZM74.6667 37.3333H80V42.6667H74.6667V37.3333ZM80 37.3333H85.3333V42.6667H80V37.3333ZM90.6667 37.3333H96V42.6667H90.6667V37.3333ZM96 37.3333H101.333V42.6667H96V37.3333ZM101.333 37.3333H106.667V42.6667H101.333V37.3333ZM117.333 37.3333H122.667V42.6667H117.333V37.3333ZM128 37.3333H133.333V42.6667H128V37.3333ZM5.33333 42.6667H10.6667V48H5.33333V42.6667ZM10.6667 42.6667H16V48H10.6667V42.6667ZM16 42.6667H21.3333V48H16V42.6667ZM26.6667 42.6667H32V48H26.6667V42.6667ZM32 42.6667H37.3333V48H32V42.6667ZM53.3333 42.6667H58.6667V48H53.3333V42.6667ZM58.6667 42.6667H64V48H58.6667V42.6667ZM64 42.6667H69.3333V48H64V42.6667ZM85.3333 42.6667H90.6667V48H85.3333V42.6667ZM90.6667 42.6667H96V48H90.6667V42.6667ZM96 42.6667H101.333V48H96V42.6667ZM112 42.6667H117.333V48H112V42.6667ZM122.667 42.6667H128V48H122.667V42.6667ZM128 42.6667H133.333V48H128V42.6667ZM160 42.6667H165.333V48H160V42.6667ZM165.333 42.6667H170.667V48H165.333V42.6667ZM21.3333 48H26.6667V53.3333H21.3333V48ZM26.6667 48H32V53.3333H26.6667V48ZM42.6667 48H48V53.3333H42.6667V48ZM48 48H53.3333V53.3333H48V48ZM53.3333 48H58.6667V53.3333H53.3333V48ZM58.6667 48H64V53.3333H58.6667V48ZM64 48H69.3333V53.3333H64V48ZM69.3333 48H74.6667V53.3333H69.3333V48ZM74.6667 48H80V53.3333H74.6667V48ZM90.6667 48H96V53.3333H90.6667V48ZM96 48H101.333V53.3333H96V48ZM101.333 48H106.667V53.3333H101.333V48ZM106.667 48H112V53.3333H106.667V48ZM122.667 48H128V53.3333H122.667V48ZM138.667 48H144V53.3333H138.667V48ZM144 48H149.333V53.3333H144V48ZM154.667 48H160V53.3333H154.667V48ZM160 48H165.333V53.3333H160V48ZM165.333 48H170.667V53.3333H165.333V48ZM170.667 48H176V53.3333H170.667V48ZM0 53.3333H5.33333V58.6667H0V53.3333ZM16 53.3333H21.3333V58.6667H16V53.3333ZM26.6667 53.3333H32V58.6667H26.6667V53.3333ZM32 53.3333H37.3333V58.6667H32V53.3333ZM42.6667 53.3333H48V58.6667H42.6667V53.3333ZM48 53.3333H53.3333V58.6667H48V53.3333ZM53.3333 53.3333H58.6667V58.6667H53.3333V53.3333ZM69.3333 53.3333H74.6667V58.6667H69.3333V53.3333ZM85.3333 53.3333H90.6667V58.6667H85.3333V53.3333ZM96 53.3333H101.333V58.6667H96V53.3333ZM106.667 53.3333H112V58.6667H106.667V53.3333ZM112 53.3333H117.333V58.6667H112V53.3333ZM117.333 53.3333H122.667V58.6667H117.333V53.3333ZM122.667 53.3333H128V58.6667H122.667V53.3333ZM133.333 53.3333H138.667V58.6667H133.333V53.3333ZM138.667 53.3333H144V58.6667H138.667V53.3333ZM144 53.3333H149.333V58.6667H144V53.3333ZM149.333 53.3333H154.667V58.6667H149.333V53.3333ZM154.667 53.3333H160V58.6667H154.667V53.3333ZM165.333 53.3333H170.667V58.6667H165.333V53.3333ZM170.667 53.3333H176V58.6667H170.667V53.3333ZM10.6667 58.6667H16V64H10.6667V58.6667ZM16 58.6667H21.3333V64H16V58.6667ZM21.3333 58.6667H26.6667V64H21.3333V58.6667ZM26.6667 58.6667H32V64H26.6667V58.6667ZM42.6667 58.6667H48V64H42.6667V58.6667ZM48 58.6667H53.3333V64H48V58.6667ZM53.3333 58.6667H58.6667V64H53.3333V58.6667ZM58.6667 58.6667H64V64H58.6667V58.6667ZM64 58.6667H69.3333V64H64V58.6667ZM69.3333 58.6667H74.6667V64H69.3333V58.6667ZM85.3333 58.6667H90.6667V64H85.3333V58.6667ZM90.6667 58.6667H96V64H90.6667V58.6667ZM106.667 58.6667H112V64H106.667V58.6667ZM112 58.6667H117.333V64H112V58.6667ZM117.333 58.6667H122.667V64H117.333V58.6667ZM122.667 58.6667H128V64H122.667V58.6667ZM128 58.6667H133.333V64H128V58.6667ZM144 58.6667H149.333V64H144V58.6667ZM154.667 58.6667H160V64H154.667V58.6667ZM170.667 58.6667H176V64H170.667V58.6667ZM0 64H5.33333V69.3333H0V64ZM10.6667 64H16V69.3333H10.6667V64ZM32 64H37.3333V69.3333H32V64ZM37.3333 64H42.6667V69.3333H37.3333V64ZM42.6667 64H48V69.3333H42.6667V64ZM58.6667 64H64V69.3333H58.6667V64ZM64 64H69.3333V69.3333H64V64ZM69.3333 64H74.6667V69.3333H69.3333V64ZM74.6667 64H80V69.3333H74.6667V64ZM80 64H85.3333V69.3333H80V64ZM101.333 64H106.667V69.3333H101.333V64ZM106.667 64H112V69.3333H106.667V64ZM112 64H117.333V69.3333H112V64ZM117.333 64H122.667V69.3333H117.333V64ZM122.667 64H128V69.3333H122.667V64ZM133.333 64H138.667V69.3333H133.333V64ZM144 64H149.333V69.3333H144V64ZM149.333 64H154.667V69.3333H149.333V64ZM154.667 64H160V69.3333H154.667V64ZM0 69.3333H5.33333V74.6667H0V69.3333ZM26.6667 69.3333H32V74.6667H26.6667V69.3333ZM37.3333 69.3333H42.6667V74.6667H37.3333V69.3333ZM42.6667 69.3333H48V74.6667H42.6667V69.3333ZM53.3333 69.3333H58.6667V74.6667H53.3333V69.3333ZM58.6667 69.3333H64V74.6667H58.6667V69.3333ZM69.3333 69.3333H74.6667V74.6667H69.3333V69.3333ZM85.3333 69.3333H90.6667V74.6667H85.3333V69.3333ZM90.6667 69.3333H96V74.6667H90.6667V69.3333ZM106.667 69.3333H112V74.6667H106.667V69.3333ZM112 69.3333H117.333V74.6667H112V69.3333ZM122.667 69.3333H128V74.6667H122.667V69.3333ZM133.333 69.3333H138.667V74.6667H133.333V69.3333ZM144 69.3333H149.333V74.6667H144V69.3333ZM165.333 69.3333H170.667V74.6667H165.333V69.3333ZM10.6667 74.6667H16V80H10.6667V74.6667ZM16 74.6667H21.3333V80H16V74.6667ZM21.3333 74.6667H26.6667V80H21.3333V74.6667ZM32 74.6667H37.3333V80H32V74.6667ZM37.3333 74.6667H42.6667V80H37.3333V74.6667ZM42.6667 74.6667H48V80H42.6667V74.6667ZM64 74.6667H69.3333V80H64V74.6667ZM90.6667 74.6667H96V80H90.6667V74.6667ZM96 74.6667H101.333V80H96V74.6667ZM101.333 74.6667H106.667V80H101.333V74.6667ZM106.667 74.6667H112V80H106.667V74.6667ZM117.333 74.6667H122.667V80H117.333V74.6667ZM128 74.6667H133.333V80H128V74.6667ZM138.667 74.6667H144V80H138.667V74.6667ZM154.667 74.6667H160V80H154.667V74.6667ZM160 74.6667H165.333V80H160V74.6667ZM16 80H21.3333V85.3333H16V80ZM26.6667 80H32V85.3333H26.6667V80ZM42.6667 80H48V85.3333H42.6667V80ZM53.3333 80H58.6667V85.3333H53.3333V80ZM58.6667 80H64V85.3333H58.6667V80ZM69.3333 80H74.6667V85.3333H69.3333V80ZM74.6667 80H80V85.3333H74.6667V80ZM80 80H85.3333V85.3333H80V80ZM90.6667 80H96V85.3333H90.6667V80ZM112 80H117.333V85.3333H112V80ZM117.333 80H122.667V85.3333H117.333V80ZM128 80H133.333V85.3333H128V80ZM133.333 80H138.667V85.3333H133.333V80ZM138.667 80H144V85.3333H138.667V80ZM154.667 80H160V85.3333H154.667V80ZM160 80H165.333V85.3333H160V80ZM5.33333 85.3333H10.6667V90.6667H5.33333V85.3333ZM10.6667 85.3333H16V90.6667H10.6667V85.3333ZM16 85.3333H21.3333V90.6667H16V85.3333ZM32 85.3333H37.3333V90.6667H32V85.3333ZM37.3333 85.3333H42.6667V90.6667H37.3333V85.3333ZM42.6667 85.3333H48V90.6667H42.6667V85.3333ZM48 85.3333H53.3333V90.6667H48V85.3333ZM64 85.3333H69.3333V90.6667H64V85.3333ZM69.3333 85.3333H74.6667V90.6667H69.3333V85.3333ZM85.3333 85.3333H90.6667V90.6667H85.3333V85.3333ZM90.6667 85.3333H96V90.6667H90.6667V85.3333ZM96 85.3333H101.333V90.6667H96V85.3333ZM106.667 85.3333H112V90.6667H106.667V85.3333ZM112 85.3333H117.333V90.6667H112V85.3333ZM117.333 85.3333H122.667V90.6667H117.333V85.3333ZM122.667 85.3333H128V90.6667H122.667V85.3333ZM133.333 85.3333H138.667V90.6667H133.333V85.3333ZM138.667 85.3333H144V90.6667H138.667V85.3333ZM149.333 85.3333H154.667V90.6667H149.333V85.3333ZM154.667 85.3333H160V90.6667H154.667V85.3333ZM160 85.3333H165.333V90.6667H160V85.3333ZM0 90.6667H5.33333V96H0V90.6667ZM21.3333 90.6667H26.6667V96H21.3333V90.6667ZM42.6667 90.6667H48V96H42.6667V90.6667ZM53.3333 90.6667H58.6667V96H53.3333V90.6667ZM64 90.6667H69.3333V96H64V90.6667ZM80 90.6667H85.3333V96H80V90.6667ZM85.3333 90.6667H90.6667V96H85.3333V90.6667ZM122.667 90.6667H128V96H122.667V90.6667ZM138.667 90.6667H144V96H138.667V90.6667ZM149.333 90.6667H154.667V96H149.333V90.6667ZM154.667 90.6667H160V96H154.667V90.6667ZM170.667 90.6667H176V96H170.667V90.6667ZM10.6667 96H16V101.333H10.6667V96ZM26.6667 96H32V101.333H26.6667V96ZM32 96H37.3333V101.333H32V96ZM37.3333 96H42.6667V101.333H37.3333V96ZM42.6667 96H48V101.333H42.6667V96ZM48 96H53.3333V101.333H48V96ZM53.3333 96H58.6667V101.333H53.3333V96ZM58.6667 96H64V101.333H58.6667V96ZM80 96H85.3333V101.333H80V96ZM96 96H101.333V101.333H96V96ZM112 96H117.333V101.333H112V96ZM144 96H149.333V101.333H144V96ZM149.333 96H154.667V101.333H149.333V96ZM160 96H165.333V101.333H160V96ZM165.333 96H170.667V101.333H165.333V96ZM21.3333 101.333H26.6667V106.667H21.3333V101.333ZM42.6667 101.333H48V106.667H42.6667V101.333ZM64 101.333H69.3333V106.667H64V101.333ZM69.3333 101.333H74.6667V106.667H69.3333V101.333ZM74.6667 101.333H80V106.667H74.6667V101.333ZM80 101.333H85.3333V106.667H80V101.333ZM85.3333 101.333H90.6667V106.667H85.3333V101.333ZM90.6667 101.333H96V106.667H90.6667V101.333ZM101.333 101.333H106.667V106.667H101.333V101.333ZM106.667 101.333H112V106.667H106.667V101.333ZM117.333 101.333H122.667V106.667H117.333V101.333ZM128 101.333H133.333V106.667H128V101.333ZM133.333 101.333H138.667V106.667H133.333V101.333ZM149.333 101.333H154.667V106.667H149.333V101.333ZM165.333 101.333H170.667V106.667H165.333V101.333ZM0 106.667H5.33333V112H0V106.667ZM10.6667 106.667H16V112H10.6667V106.667ZM26.6667 106.667H32V112H26.6667V106.667ZM32 106.667H37.3333V112H32V106.667ZM42.6667 106.667H48V112H42.6667V106.667ZM48 106.667H53.3333V112H48V106.667ZM64 106.667H69.3333V112H64V106.667ZM74.6667 106.667H80V112H74.6667V106.667ZM80 106.667H85.3333V112H80V106.667ZM85.3333 106.667H90.6667V112H85.3333V106.667ZM90.6667 106.667H96V112H90.6667V106.667ZM101.333 106.667H106.667V112H101.333V106.667ZM117.333 106.667H122.667V112H117.333V106.667ZM154.667 106.667H160V112H154.667V106.667ZM160 106.667H165.333V112H160V106.667ZM170.667 106.667H176V112H170.667V106.667ZM0 112H5.33333V117.333H0V112ZM5.33333 112H10.6667V117.333H5.33333V112ZM10.6667 112H16V117.333H10.6667V112ZM16 112H21.3333V117.333H16V112ZM26.6667 112H32V117.333H26.6667V112ZM58.6667 112H64V117.333H58.6667V112ZM74.6667 112H80V117.333H74.6667V112ZM85.3333 112H90.6667V117.333H85.3333V112ZM106.667 112H112V117.333H106.667V112ZM112 112H117.333V117.333H112V112ZM117.333 112H122.667V117.333H117.333V112ZM133.333 112H138.667V117.333H133.333V112ZM138.667 112H144V117.333H138.667V112ZM154.667 112H160V117.333H154.667V112ZM170.667 112H176V117.333H170.667V112ZM10.6667 117.333H16V122.667H10.6667V117.333ZM16 117.333H21.3333V122.667H16V117.333ZM21.3333 117.333H26.6667V122.667H21.3333V117.333ZM32 117.333H37.3333V122.667H32V117.333ZM48 117.333H53.3333V122.667H48V117.333ZM69.3333 117.333H74.6667V122.667H69.3333V117.333ZM74.6667 117.333H80V122.667H74.6667V117.333ZM101.333 117.333H106.667V122.667H101.333V117.333ZM106.667 117.333H112V122.667H106.667V117.333ZM117.333 117.333H122.667V122.667H117.333V117.333ZM133.333 117.333H138.667V122.667H133.333V117.333ZM138.667 117.333H144V122.667H138.667V117.333ZM160 117.333H165.333V122.667H160V117.333ZM165.333 117.333H170.667V122.667H165.333V117.333ZM170.667 117.333H176V122.667H170.667V117.333ZM5.33333 122.667H10.6667V128H5.33333V122.667ZM16 122.667H21.3333V128H16V122.667ZM26.6667 122.667H32V128H26.6667V122.667ZM42.6667 122.667H48V128H42.6667V122.667ZM48 122.667H53.3333V128H48V122.667ZM64 122.667H69.3333V128H64V122.667ZM80 122.667H85.3333V128H80V122.667ZM90.6667 122.667H96V128H90.6667V122.667ZM96 122.667H101.333V128H96V122.667ZM106.667 122.667H112V128H106.667V122.667ZM117.333 122.667H122.667V128H117.333V122.667ZM122.667 122.667H128V128H122.667V122.667ZM128 122.667H133.333V128H128V122.667ZM138.667 122.667H144V128H138.667V122.667ZM144 122.667H149.333V128H144V122.667ZM149.333 122.667H154.667V128H149.333V122.667ZM154.667 122.667H160V128H154.667V122.667ZM0 128H5.33333V133.333H0V128ZM16 128H21.3333V133.333H16V128ZM21.3333 128H26.6667V133.333H21.3333V128ZM26.6667 128H32V133.333H26.6667V128ZM32 128H37.3333V133.333H32V128ZM48 128H53.3333V133.333H48V128ZM53.3333 128H58.6667V133.333H53.3333V128ZM58.6667 128H64V133.333H58.6667V128ZM74.6667 128H80V133.333H74.6667V128ZM80 128H85.3333V133.333H80V128ZM85.3333 128H90.6667V133.333H85.3333V128ZM90.6667 128H96V133.333H90.6667V128ZM101.333 128H106.667V133.333H101.333V128ZM106.667 128H112V133.333H106.667V128ZM117.333 128H122.667V133.333H117.333V128ZM122.667 128H128V133.333H122.667V128ZM128 128H133.333V133.333H128V128ZM133.333 128H138.667V133.333H133.333V128ZM138.667 128H144V133.333H138.667V128ZM144 128H149.333V133.333H144V128ZM149.333 128H154.667V133.333H149.333V128ZM154.667 128H160V133.333H154.667V128ZM42.6667 133.333H48V138.667H42.6667V133.333ZM48 133.333H53.3333V138.667H48V133.333ZM53.3333 133.333H58.6667V138.667H53.3333V133.333ZM58.6667 133.333H64V138.667H58.6667V133.333ZM64 133.333H69.3333V138.667H64V133.333ZM69.3333 133.333H74.6667V138.667H69.3333V133.333ZM85.3333 133.333H90.6667V138.667H85.3333V133.333ZM96 133.333H101.333V138.667H96V133.333ZM101.333 133.333H106.667V138.667H101.333V133.333ZM112 133.333H117.333V138.667H112V133.333ZM117.333 133.333H122.667V138.667H117.333V133.333ZM128 133.333H133.333V138.667H128V133.333ZM149.333 133.333H154.667V138.667H149.333V133.333ZM154.667 133.333H160V138.667H154.667V133.333ZM0 138.667H5.33333V144H0V138.667ZM5.33333 138.667H10.6667V144H5.33333V138.667ZM10.6667 138.667H16V144H10.6667V138.667ZM16 138.667H21.3333V144H16V138.667ZM21.3333 138.667H26.6667V144H21.3333V138.667ZM26.6667 138.667H32V144H26.6667V138.667ZM32 138.667H37.3333V144H32V138.667ZM48 138.667H53.3333V144H48V138.667ZM53.3333 138.667H58.6667V144H53.3333V138.667ZM69.3333 138.667H74.6667V144H69.3333V138.667ZM74.6667 138.667H80V144H74.6667V138.667ZM80 138.667H85.3333V144H80V138.667ZM85.3333 138.667H90.6667V144H85.3333V138.667ZM90.6667 138.667H96V144H90.6667V138.667ZM96 138.667H101.333V144H96V138.667ZM101.333 138.667H106.667V144H101.333V138.667ZM106.667 138.667H112V144H106.667V138.667ZM112 138.667H117.333V144H112V138.667ZM122.667 138.667H128V144H122.667V138.667ZM128 138.667H133.333V144H128V138.667ZM138.667 138.667H144V144H138.667V138.667ZM149.333 138.667H154.667V144H149.333V138.667ZM165.333 138.667H170.667V144H165.333V138.667ZM0 144H5.33333V149.333H0V144ZM32 144H37.3333V149.333H32V144ZM42.6667 144H48V149.333H42.6667V144ZM53.3333 144H58.6667V149.333H53.3333V144ZM64 144H69.3333V149.333H64V144ZM85.3333 144H90.6667V149.333H85.3333V144ZM90.6667 144H96V149.333H90.6667V144ZM96 144H101.333V149.333H96V144ZM106.667 144H112V149.333H106.667V144ZM122.667 144H128V149.333H122.667V144ZM128 144H133.333V149.333H128V144ZM149.333 144H154.667V149.333H149.333V144ZM154.667 144H160V149.333H154.667V144ZM160 144H165.333V149.333H160V144ZM165.333 144H170.667V149.333H165.333V144ZM0 149.333H5.33333V154.667H0V149.333ZM10.6667 149.333H16V154.667H10.6667V149.333ZM16 149.333H21.3333V154.667H16V149.333ZM21.3333 149.333H26.6667V154.667H21.3333V149.333ZM32 149.333H37.3333V154.667H32V149.333ZM48 149.333H53.3333V154.667H48V149.333ZM53.3333 149.333H58.6667V154.667H53.3333V149.333ZM85.3333 149.333H90.6667V154.667H85.3333V149.333ZM90.6667 149.333H96V154.667H90.6667V149.333ZM96 149.333H101.333V154.667H96V149.333ZM117.333 149.333H122.667V154.667H117.333V149.333ZM122.667 149.333H128V154.667H122.667V149.333ZM128 149.333H133.333V154.667H128V149.333ZM133.333 149.333H138.667V154.667H133.333V149.333ZM138.667 149.333H144V154.667H138.667V149.333ZM144 149.333H149.333V154.667H144V149.333ZM149.333 149.333H154.667V154.667H149.333V149.333ZM160 149.333H165.333V154.667H160V149.333ZM165.333 149.333H170.667V154.667H165.333V149.333ZM0 154.667H5.33333V160H0V154.667ZM10.6667 154.667H16V160H10.6667V154.667ZM16 154.667H21.3333V160H16V154.667ZM21.3333 154.667H26.6667V160H21.3333V154.667ZM32 154.667H37.3333V160H32V154.667ZM42.6667 154.667H48V160H42.6667V154.667ZM64 154.667H69.3333V160H64V154.667ZM74.6667 154.667H80V160H74.6667V154.667ZM80 154.667H85.3333V160H80V154.667ZM101.333 154.667H106.667V160H101.333V154.667ZM117.333 154.667H122.667V160H117.333V154.667ZM122.667 154.667H128V160H122.667V154.667ZM128 154.667H133.333V160H128V154.667ZM144 154.667H149.333V160H144V154.667ZM165.333 154.667H170.667V160H165.333V154.667ZM170.667 154.667H176V160H170.667V154.667ZM0 160H5.33333V165.333H0V160ZM10.6667 160H16V165.333H10.6667V160ZM16 160H21.3333V165.333H16V160ZM21.3333 160H26.6667V165.333H21.3333V160ZM32 160H37.3333V165.333H32V160ZM42.6667 160H48V165.333H42.6667V160ZM58.6667 160H64V165.333H58.6667V160ZM106.667 160H112V165.333H106.667V160ZM112 160H117.333V165.333H112V160ZM117.333 160H122.667V165.333H117.333V160ZM122.667 160H128V165.333H122.667V160ZM128 160H133.333V165.333H128V160ZM133.333 160H138.667V165.333H133.333V160ZM138.667 160H144V165.333H138.667V160ZM144 160H149.333V165.333H144V160ZM0 165.333H5.33333V170.667H0V165.333ZM32 165.333H37.3333V170.667H32V165.333ZM42.6667 165.333H48V170.667H42.6667V165.333ZM53.3333 165.333H58.6667V170.667H53.3333V165.333ZM74.6667 165.333H80V170.667H74.6667V165.333ZM80 165.333H85.3333V170.667H80V165.333ZM85.3333 165.333H90.6667V170.667H85.3333V165.333ZM90.6667 165.333H96V170.667H90.6667V165.333ZM96 165.333H101.333V170.667H96V165.333ZM106.667 165.333H112V170.667H106.667V165.333ZM122.667 165.333H128V170.667H122.667V165.333ZM133.333 165.333H138.667V170.667H133.333V165.333ZM138.667 165.333H144V170.667H138.667V165.333ZM144 165.333H149.333V170.667H144V165.333ZM149.333 165.333H154.667V170.667H149.333V165.333ZM170.667 165.333H176V170.667H170.667V165.333ZM0 170.667H5.33333V176H0V170.667ZM5.33333 170.667H10.6667V176H5.33333V170.667ZM10.6667 170.667H16V176H10.6667V170.667ZM16 170.667H21.3333V176H16V170.667ZM21.3333 170.667H26.6667V176H21.3333V170.667ZM26.6667 170.667H32V176H26.6667V170.667ZM32 170.667H37.3333V176H32V170.667ZM53.3333 170.667H58.6667V176H53.3333V170.667ZM58.6667 170.667H64V176H58.6667V170.667ZM64 170.667H69.3333V176H64V170.667ZM69.3333 170.667H74.6667V176H69.3333V170.667ZM85.3333 170.667H90.6667V176H85.3333V170.667ZM96 170.667H101.333V176H96V170.667ZM101.333 170.667H106.667V176H101.333V170.667ZM112 170.667H117.333V176H112V170.667ZM133.333 170.667H138.667V176H133.333V170.667ZM149.333 170.667H154.667V176H149.333V170.667ZM160 170.667H165.333V176H160V170.667Z" fill="#121212"/>
</svg>
