<svg width="69" height="54" viewBox="0 0 69 54" fill="none" xmlns="http://www.w3.org/2000/svg">
<g clip-path="url(#clip0_4834_127577)">
<path d="M68.8433 13.144V51.3691C68.8433 52.3487 68.0857 53.1541 67.1643 53.1541H37.27L58.667 25.1384L66.1201 20.6976L68.1062 13.144H68.8433Z" fill="#007C5B"/>
<path d="M68.1077 13.144L66.1216 20.6976L58.6685 25.1384L34.794 39.3748L5.12489 20.197L1.64404 13.144H68.1077Z" fill="#007C5B"/>
<path d="M68.2498 12.5996L68.1065 13.1438H67.8403L68.2498 12.5996Z" fill="#FCA34A"/>
<path d="M58.6685 25.1384L37.2716 53.1541H2.44267C1.52127 53.1541 0.763672 52.3487 0.763672 51.3691V13.144H1.64412L5.10449 20.197L34.794 39.3748L58.6685 25.1384Z" fill="url(#paint0_linear_4834_127577)"/>
<path d="M34.8746 0.692383V29.3394C32.6428 29.3394 30.5543 27.6197 28.8343 25.4864C25.722 21.6117 24.084 16.6268 24.084 11.533V0.692383H34.8746Z" fill="#007C5B"/>
<path d="M46.258 0.692383V10.6623C46.258 15.7996 44.6199 20.8063 41.5486 24.7681C39.6444 27.2279 37.3102 29.3177 34.894 29.3177V0.692383H46.258Z" fill="url(#paint1_linear_4834_127577)"/>
<path d="M32.1327 18.1289H37.9273C38.4801 18.1289 38.9306 17.65 38.9306 17.0623V13.1658C38.9306 12.578 38.4801 12.0991 37.9273 12.0991H32.1327C31.5799 12.0991 31.1294 12.578 31.1294 13.1658V17.0623C31.1294 17.65 31.5799 18.1289 32.1327 18.1289Z" fill="white"/>
<path d="M35.0193 16.1479C33.2379 16.1479 31.7842 14.6023 31.7842 12.7085V10.684C31.7842 8.79018 33.2379 7.24463 35.0193 7.24463C36.8007 7.24463 38.2545 8.79018 38.2545 10.684V12.7085C38.234 14.6023 36.8007 16.1479 35.0193 16.1479ZM35.0193 8.09359C33.6679 8.09359 32.5827 9.24731 32.5827 10.684V12.7085C32.5827 14.1452 33.6679 15.2989 35.0193 15.2989C36.3707 15.2989 37.4559 14.1452 37.4559 12.7085V10.684C37.4354 9.26908 36.3502 8.09359 35.0193 8.09359Z" fill="white"/>
</g>
<defs>
<linearGradient id="paint0_linear_4834_127577" x1="19.2874" y1="26.4807" x2="88.3625" y2="48.2469" gradientUnits="userSpaceOnUse">
<stop stop-color="#008D6C"/>
<stop offset="1" stop-color="#11FFC7"/>
</linearGradient>
<linearGradient id="paint1_linear_4834_127577" x1="38.5294" y1="10.2341" x2="53.321" y2="11.5127" gradientUnits="userSpaceOnUse">
<stop stop-color="#008D6C"/>
<stop offset="1" stop-color="#11FFC7"/>
</linearGradient>
<clipPath id="clip0_4834_127577">
<rect width="68.0812" height="52.4615" fill="white" transform="translate(0.764648 0.692383)"/>
</clipPath>
</defs>
</svg>
