<svg width="52" height="76" viewBox="0 0 52 76" fill="none" xmlns="http://www.w3.org/2000/svg">
<g clip-path="url(#clip0_4834_127590)">
<path d="M48.4532 19.7253L6.21418 55.2821L1.06041 49.7868C0.326772 49.0017 -0.040045 47.9295 0.07 46.838L3.24297 14.3257C3.42637 12.4493 4.94866 11.0132 6.76441 11.0132H13.6055C15.1829 11.0132 16.5401 9.9218 16.9986 8.35171C18.2458 3.98609 22.1157 0.807617 26.6826 0.807617C31.2494 0.807617 35.1194 3.98609 36.3665 8.33256C36.8251 9.90265 38.1823 10.9941 39.7596 10.9941H44.3998C46.2156 10.9941 47.7379 12.4301 47.9213 14.3066L48.4532 19.7253Z" fill="#007C5B"/>
<path d="M49.9394 49.959L25.5828 75.9229L19.6587 69.6234L49.9394 49.959Z" fill="url(#paint0_linear_4834_127590)"/>
<path d="M50.1047 49.7866L49.9396 49.9589L19.6772 69.6233L6.2334 55.2819L48.454 19.7251L51.0951 46.8187C51.2051 47.9101 50.8383 49.0015 50.1047 49.7866Z" fill="url(#paint1_linear_4834_127590)"/>
<g style="mix-blend-mode:multiply" opacity="0.3">
<path d="M28.1122 21.5254C34.7332 21.5254 38.8599 25.8719 38.8599 31.0034C38.8599 39.8112 29.451 39.658 29.451 45.8043H23.8021C23.8021 36.671 31.872 36.8625 31.872 31.4821C31.872 29.395 30.5698 27.3654 27.7453 27.3654C24.7375 27.3654 23.3435 29.5482 23.3435 32.4969H16.6675C16.6675 26.3697 20.6658 21.5254 28.1122 21.5254ZM22.7933 48.9637H30.5332V56.8524H22.7933V48.9637Z" fill="#15437A"/>
</g>
<path d="M26.535 19.9741C33.1561 19.9741 37.2828 24.3206 37.2828 29.4521C37.2828 38.2599 27.8739 38.1067 27.8739 44.2531H22.2249C22.2249 35.1197 30.2949 35.3112 30.2949 29.9308C30.2949 27.8437 28.9927 25.8141 26.1682 25.8141C23.1603 25.8141 21.7664 27.9969 21.7664 30.9456H15.0903C15.0903 24.7993 19.0703 19.9741 26.535 19.9741ZM21.1978 47.3932H28.9377V55.282H21.1978V47.3932Z" fill="white"/>
<path d="M26.666 13.3109C24.3734 13.3109 22.521 11.377 22.521 8.98357C22.521 6.59014 24.3734 4.65625 26.666 4.65625C28.9586 4.65625 30.8111 6.59014 30.8111 8.98357C30.8111 11.3579 28.9403 13.3109 26.666 13.3109ZM26.666 5.23067C24.6852 5.23067 23.0712 6.91565 23.0712 8.98357C23.0712 11.0515 24.6852 12.7365 26.666 12.7365C28.6468 12.7365 30.2608 11.0515 30.2608 8.98357C30.2608 6.91565 28.6468 5.23067 26.666 5.23067Z" fill="white"/>
<path d="M44.4544 15.168C44.9507 15.168 45.3531 14.7479 45.3531 14.2297C45.3531 13.7116 44.9507 13.2915 44.4544 13.2915C43.958 13.2915 43.5557 13.7116 43.5557 14.2297C43.5557 14.7479 43.958 15.168 44.4544 15.168Z" fill="white"/>
<path d="M6.30397 15.168C6.80031 15.168 7.20268 14.7479 7.20268 14.2297C7.20268 13.7116 6.80031 13.2915 6.30397 13.2915C5.80764 13.2915 5.40527 13.7116 5.40527 14.2297C5.40527 14.7479 5.80764 15.168 6.30397 15.168Z" fill="white"/>
<path d="M2.82058 48.4849C3.31692 48.4849 3.71928 48.0648 3.71928 47.5466C3.71928 47.0285 3.31692 46.6084 2.82058 46.6084C2.32424 46.6084 1.92188 47.0285 1.92188 47.5466C1.92188 48.0648 2.32424 48.4849 2.82058 48.4849Z" fill="white"/>
<path d="M46.8386 48.4849C47.335 48.4849 47.7373 48.0648 47.7373 47.5466C47.7373 47.0285 47.335 46.6084 46.8386 46.6084C46.3423 46.6084 45.9399 47.0285 45.9399 47.5466C45.9399 48.0648 46.3423 48.4849 46.8386 48.4849Z" fill="white"/>
<path d="M25.5642 72.9936C26.0606 72.9936 26.4629 72.5736 26.4629 72.0554C26.4629 71.5372 26.0606 71.1172 25.5642 71.1172C25.0679 71.1172 24.6655 71.5372 24.6655 72.0554C24.6655 72.5736 25.0679 72.9936 25.5642 72.9936Z" fill="white"/>
</g>
<defs>
<linearGradient id="paint0_linear_4834_127590" x1="29.3455" y1="58.6136" x2="66.6489" y2="68.086" gradientUnits="userSpaceOnUse">
<stop stop-color="#008D6C"/>
<stop offset="1" stop-color="#11FFC7"/>
</linearGradient>
<linearGradient id="paint1_linear_4834_127590" x1="20.5908" y1="36.3578" x2="77.2717" y2="47.458" gradientUnits="userSpaceOnUse">
<stop stop-color="#008D6C"/>
<stop offset="1" stop-color="#11FFC7"/>
</linearGradient>
<clipPath id="clip0_4834_127590">
<rect width="51.0609" height="75.1154" fill="white" transform="translate(0.0522461 0.807617)"/>
</clipPath>
</defs>
</svg>
