<svg width="28" height="29" viewBox="0 0 28 29" fill="none" xmlns="http://www.w3.org/2000/svg">
<path d="M13.9499 28.2001C21.5162 28.2001 27.6498 22.0665 27.6498 14.5002C27.6498 6.93395 21.5162 0.800293 13.9499 0.800293C6.38366 0.800293 0.25 6.93395 0.25 14.5002C0.25 22.0665 6.38366 28.2001 13.9499 28.2001Z" fill="#E84142"/>
<path d="M18.245 14.5535C18.6804 13.7736 19.3831 13.7736 19.8186 14.5535L22.5303 19.4895C22.9657 20.2695 22.6095 20.9057 21.7385 20.9057H16.2755C15.4145 20.9057 15.0582 20.2695 15.4838 19.4895L18.245 14.5535ZM12.9997 5.05076C13.4351 4.27084 14.1279 4.27084 14.5634 5.05076L15.1671 6.17959L16.5922 8.77591C16.9386 9.51478 16.9386 10.3871 16.5922 11.1259L11.812 19.7153C11.3766 20.4131 10.6541 20.8544 9.85247 20.9057H5.88385C5.01293 20.9057 4.65664 20.2797 5.0921 19.4895L12.9997 5.05076Z" fill="white"/>
</svg>
