<svg width="30" height="29" viewBox="0 0 30 29" fill="none" xmlns="http://www.w3.org/2000/svg">
<path opacity="0.2" d="M27.7098 17.5743C25.88 24.9136 18.4461 29.3798 11.1059 27.55C3.76921 25.7202 -0.697394 18.2863 1.13283 10.9474C2.96177 3.60726 10.3953 -0.859768 17.7333 0.970027C25.073 2.79982 29.5392 10.2346 27.7094 17.5743H27.7098Z" fill="#F7931A"/>
<path fill-rule="evenodd" clip-rule="evenodd" d="M20.119 12.2583C20.3693 10.582 19.093 9.68083 17.3478 9.07967L17.9139 6.80887L16.5313 6.46439L15.9801 8.67535C15.6171 8.5848 15.2439 8.49937 14.873 8.41473L15.4281 6.1892L14.0467 5.84473L13.4802 8.11474C13.1794 8.04624 12.8841 7.97852 12.5975 7.90726L12.5991 7.90018L10.6929 7.42421L10.3251 8.90054C10.3251 8.90054 11.3507 9.13557 11.3291 9.15014C11.8889 9.2899 11.9905 9.66036 11.9731 9.95405L11.3283 12.541C11.3669 12.5508 11.4168 12.565 11.472 12.587L11.3263 12.5508L10.422 16.1747C10.3535 16.3448 10.1799 16.5999 9.78855 16.5031C9.80233 16.5232 8.78386 16.2523 8.78386 16.2523L8.09766 17.8349L9.89682 18.2833C10.0999 18.3342 10.3006 18.3866 10.499 18.4384C10.6275 18.4719 10.7551 18.5052 10.8818 18.5377L10.3098 20.8348L11.6905 21.1793L12.2574 18.9069C12.6341 19.0093 13.0003 19.1038 13.3585 19.1928L12.794 21.4545L14.1762 21.799L14.7482 19.5065C17.1053 19.9526 18.878 19.7727 19.6233 17.6412C20.2245 15.9247 19.5938 14.9346 18.3536 14.2886C19.2568 14.0795 19.9371 13.4854 20.1186 12.2583H20.119ZM16.9601 16.6867C16.5677 18.2621 14.1013 17.6103 12.9738 17.3123C12.8728 17.2856 12.7826 17.2618 12.7055 17.2426L13.4646 14.1998C13.5587 14.2233 13.6737 14.2491 13.804 14.2783L13.8041 14.2784C14.9706 14.5401 17.3611 15.0765 16.9605 16.6867H16.9601ZM14.0405 12.8669C14.9813 13.1179 17.032 13.665 17.3892 12.2338C17.7544 10.7697 15.7603 10.3284 14.7865 10.1129C14.677 10.0887 14.5804 10.0673 14.5015 10.0477L13.8133 12.8074C13.8784 12.8237 13.9549 12.844 14.0405 12.8669Z" fill="#F7931A"/>
</svg>
